HIERARCHY
ROOT Hips
{
	OFFSET 0.000000 0.000000 0.000000 
	CHANNELS 6 Xposition Yposition Zposition Zrotation Yrotation Xrotation
	JOINT LeftUpLeg
	{
		OFFSET 1.363060 -1.794630 0.839290 
		CHANNELS 3 Zrotation Yrotation Xrotation
		JOINT LeftLeg
		{
			OFFSET 2.448110 -6.726130 0.000000 
			CHANNELS 3 Zrotation Yrotation Xrotation
			JOINT LeftFoot
			{
				OFFSET 2.562200 -7.039590 0.000000 
				CHANNELS 3 Zrotation Yrotation Xrotation
				JOINT LeftToeBase
				{
					OFFSET 0.157640 -0.433110 2.322550 
					CHANNELS 3 Zrotation Yrotation Xrotation
					End Site
					{
						OFFSET 0.000000 0.000000 0.000000 
					}
				}
			}
		}
	}
	JOINT RightUpLeg
	{
		OFFSET -1.305520 -1.794630 0.839290 
		CHANNELS 3 Zrotation Yrotation Xrotation
		JOINT RightLeg
		{
			OFFSET -2.542530 -6.985550 0.000000 
			CHANNELS 3 Zrotation Yrotation Xrotation
			JOINT RightFoot
			{
				OFFSET -2.568260 -7.056230 0.000000 
				CHANNELS 3 Zrotation Yrotation Xrotation
				JOINT RightToeBase
				{
					OFFSET -0.164730 -0.452590 2.363150 
					CHANNELS 3 Zrotation Yrotation Xrotation
					End Site
					{
						OFFSET 0.000000 0.000000 0.000000 
					}
				}
			}
		}
	}
	JOINT Spine
	{
		OFFSET 0.028270 2.035590 -0.193380 
		CHANNELS 3 Zrotation Yrotation Xrotation
		JOINT Spine1
		{
			OFFSET 0.056720 2.048850 -0.042750 
			CHANNELS 3 Zrotation Yrotation Xrotation
			JOINT Neck1
			{
				OFFSET -0.054170 1.746240 0.172020 
				CHANNELS 3 Zrotation Yrotation Xrotation
				JOINT Head
				{
					OFFSET 0.104070 1.761360 -0.123970 
					CHANNELS 3 Zrotation Yrotation Xrotation
					End Site
					{
						OFFSET 0.000000 0.000000 0.000000 
					}
				}
			}
			JOINT LeftArm
			{
				OFFSET 3.362410 1.200890 -0.311210 
				CHANNELS 3 Zrotation Yrotation Xrotation
				JOINT LeftForeArm
				{
					OFFSET 4.983000 -0.000000 -0.000000 
					CHANNELS 3 Zrotation Yrotation Xrotation
					JOINT LeftHand
					{
						OFFSET 3.483560 -0.000000 -0.000000 
						CHANNELS 3 Zrotation Yrotation Xrotation
						JOINT LeftHandIndex1
						{
							OFFSET 0.715260 -0.000000 -0.000000 
							CHANNELS 3 Zrotation Yrotation Xrotation
							End Site
							{
								OFFSET 0.000000 0.000000 0.000000 
							}
						}
					}
				}
			}
			JOINT RightArm
			{
				OFFSET -3.136600 1.374050 -0.404650 
				CHANNELS 3 Zrotation Yrotation Xrotation
				JOINT RightForeArm
				{
					OFFSET -5.241900 -0.000000 -0.000000 
					CHANNELS 3 Zrotation Yrotation Xrotation
					JOINT RightHand
					{
						OFFSET -3.444170 -0.000000 -0.000000 
						CHANNELS 3 Zrotation Yrotation Xrotation
						JOINT RightHandIndex1
						{
							OFFSET -0.622530 -0.000000 -0.000000 
							CHANNELS 3 Zrotation Yrotation Xrotation
							End Site
							{
								OFFSET 0.000000 0.000000 0.000000 
							}
						}
					}
				}
			}
		}
	}
}
MOTION
Frames: 15
Frame Time: 0.041667
4.169937 17.808669 -3.930531 7.301467 -42.586952 -0.704215 -5.149251 -7.974207 -22.838176 2.848457 11.999532 36.894292 1.133403 0.907543 5.527796 0.389000 -4.004900 -11.090500 4.947745 21.176015 -14.845546 -5.690931 -13.110154 44.748434 2.697188 -9.932109 -9.284508 -0.628100 5.071300 -14.112100 -1.717241 0.081595 1.701570 2.296577 0.328240 -3.897198 3.067399 2.444149 10.025052 2.303400 1.285500 3.887400 -77.578916 -6.585289 19.410080 140.598756 -47.992669 -104.240046 -0.059389 -1.115390 -5.884727 -7.125000 0.000000 0.000000 67.394278 3.497514 46.666099 -90.582022 61.412074 -73.505852 0.913625 2.979425 0.793553 7.125000 0.000000 0.000000 
4.182136 17.802366 -3.901355 7.418103 -42.825106 -1.000777 -5.349487 -7.687342 -22.761028 2.893892 12.061759 37.095756 1.155250 0.845991 5.361765 0.408500 -4.103100 -11.366900 4.786941 21.370713 -14.460282 -5.639924 -13.070269 44.570427 2.629966 -9.771624 -9.167370 -0.616400 5.024500 -13.978500 -1.457864 0.254705 1.405543 2.565503 0.444380 -4.503512 2.879683 2.710006 10.271865 2.245500 1.398300 3.905700 -78.250979 -6.059015 19.823315 140.330384 -48.198977 -104.044491 -0.067155 -1.118874 -6.001418 -7.125000 0.000000 0.000000 66.765152 3.322869 46.890230 -89.851301 61.277355 -72.958647 0.943602 2.973794 0.860930 7.125000 0.000000 0.000000 
4.195860 17.798909 -3.870552 7.608763 -43.135820 -1.297874 -5.623437 -7.224893 -22.794540 2.934104 12.124401 37.299821 1.216740 0.685368 5.458929 0.398600 -4.053800 -11.228000 4.547122 21.561760 -14.155766 -5.587353 -13.030614 44.370230 2.552126 -9.574177 -8.914691 -0.598900 4.954100 -13.777800 -1.402072 0.372384 1.355547 2.591437 0.513590 -4.613979 2.791861 3.045917 10.417344 2.202100 1.561300 3.913600 -78.625845 -5.799543 19.980755 140.058560 -48.398152 -103.853746 -0.070023 -1.129011 -5.932835 -7.125000 0.000000 0.000000 66.688377 3.620544 46.922882 -89.231684 61.140949 -72.543587 0.967494 2.979503 0.921850 7.125000 0.000000 0.000000 
4.212837 17.801451 -3.839343 7.785645 -43.421044 -1.501072 -5.899991 -6.746007 -22.935417 2.978641 12.187244 37.508113 1.243605 0.598992 5.707619 0.407400 -4.097600 -11.351300 4.285658 21.634618 -14.000562 -5.533369 -12.992041 44.154192 2.525444 -9.479399 -8.594656 -0.626200 5.063800 -14.090600 -1.432226 0.396697 1.469866 2.436888 0.523346 -4.335640 2.908488 3.500801 10.496997 2.228400 1.798000 3.912500 -78.853154 -5.772393 19.852631 139.697797 -48.643353 -103.616439 -0.070665 -1.134895 -5.831680 -7.125000 0.000000 0.000000 66.249638 4.339271 47.617202 -88.089322 60.866452 -71.698976 0.991340 3.001384 0.513998 7.125000 0.000000 0.000000 
4.231339 17.814158 -3.807321 8.011052 -43.773016 -1.742164 -6.230524 -6.266233 -23.082038 3.045486 12.262747 37.761594 1.136394 0.828156 5.768114 0.530000 -4.665000 -12.955400 3.982741 21.727209 -13.871221 -5.476527 -12.949282 43.911672 2.572498 -9.531789 -8.206156 -0.685100 5.292000 -14.743400 -1.518673 0.479910 1.661389 2.225182 0.556589 -3.942626 2.972106 3.932009 10.444149 2.228600 2.024100 3.862400 -79.027225 -5.813020 19.841939 139.417841 -48.831033 -103.431215 -0.067751 -1.141074 -5.652024 -7.125000 0.000000 0.000000 66.246829 5.084924 47.766793 -87.583653 60.717834 -71.380242 0.980449 3.026975 0.170176 7.125000 0.000000 0.000000 
4.254314 17.836930 -3.775400 8.138295 -44.288460 -1.939248 -6.520706 -5.594849 -23.313893 3.132880 12.365053 38.067487 0.988579 1.163724 5.962261 0.697100 -5.337100 -14.872600 3.752884 21.908291 -13.741256 -5.418584 -12.894791 43.652206 2.625128 -9.576686 -7.641851 -0.750700 5.534200 -15.438800 -1.533092 0.691930 1.787433 2.049209 0.659906 -3.738838 2.879921 4.274242 10.483645 2.173400 2.196700 3.866000 -79.334839 -5.704040 20.037231 139.351437 -48.883063 -103.378717 -0.063142 -1.151444 -5.324922 -7.125000 0.000000 0.000000 66.429137 5.641872 47.453895 -87.683106 60.708149 -71.552891 0.936052 3.049783 -0.144653 7.125000 0.000000 0.000000 
4.282575 17.869867 -3.743072 8.100090 -44.916535 -2.046903 -6.694161 -4.774617 -23.610004 3.228117 12.488469 38.418011 0.975192 1.189138 6.558102 0.760700 -5.570200 -15.542200 3.619613 22.022603 -13.659725 -5.358743 -12.836123 43.389452 2.568549 -9.374004 -6.805789 -0.797100 5.698800 -15.912800 -1.456506 0.933883 1.846623 1.888864 0.783373 -3.724397 2.605166 4.595387 10.669674 2.038600 2.351000 3.954800 -79.773593 -5.433057 20.145599 139.411571 -48.856381 -103.410960 -0.056763 -1.152491 -4.908258 -7.125000 0.000000 0.000000 66.434946 6.131233 47.221114 -88.200740 60.785826 -72.013115 0.870460 3.068154 -0.482309 7.125000 0.000000 0.000000 
4.317241 17.909616 -3.711762 8.122728 -45.473735 -2.169795 -6.905641 -4.005832 -23.978852 3.341494 12.623445 38.832361 0.969892 1.182651 7.301557 0.846700 -5.868900 -16.404600 3.369724 21.974149 -13.711446 -5.304146 -12.791235 43.140205 2.380609 -8.889365 -5.673784 -0.796000 5.694700 -15.901200 -1.371172 1.109790 1.917184 1.739882 0.873751 -3.707776 2.283921 4.927449 10.804478 1.896100 2.507500 4.036400 -80.274962 -5.206286 20.175903 139.445820 -48.848517 -103.425777 -0.059742 -1.137944 -4.417936 -7.125000 0.000000 0.000000 66.339939 6.641192 46.990412 -89.049737 60.922072 -72.715268 0.808748 3.066102 -0.648681 7.125000 0.000000 0.000000 
4.354244 17.954549 -3.682789 8.041050 -45.930273 -2.099721 -7.039095 -3.351920 -24.485939 3.475150 12.770154 39.283065 0.922164 1.280106 8.186906 1.035600 -6.472500 -18.161700 3.131400 21.808811 -13.961023 -5.258873 -12.752247 42.916104 2.185733 -8.395142 -4.351922 -0.801300 5.713300 -15.954800 -1.168820 1.284254 1.857596 1.716163 0.968357 -3.858172 2.004379 5.239367 10.866170 1.787300 2.650700 4.063200 -80.898261 -4.820797 20.395358 139.638771 -48.740481 -103.540475 -0.063485 -1.118003 -3.904706 -7.125000 0.000000 0.000000 66.107121 6.839755 46.538353 -90.599883 61.180696 -73.903249 0.728288 3.042945 -0.764120 7.125000 0.000000 0.000000 
4.393485 18.008123 -3.660119 7.991874 -46.444759 -1.993719 -7.165339 -2.698276 -25.091340 3.605718 12.915885 39.735129 0.932557 1.246927 9.405315 1.105900 -6.681600 -18.775500 2.835231 21.661872 -14.357195 -5.223856 -12.717824 42.703476 2.031765 -7.992419 -2.758035 -0.849800 5.879400 -16.435000 -0.905040 1.509864 1.660874 1.821918 1.093438 -4.251875 1.634553 5.560597 10.471662 1.834600 2.784100 4.341600 -81.599390 -4.268059 20.736182 140.124036 -48.441270 -103.840128 -0.067726 -1.101869 -3.466068 -7.125000 0.000000 0.000000 65.823537 6.792203 45.976526 -92.849062 61.506189 -75.541500 0.615579 3.007722 -0.769988 7.125000 0.000000 0.000000 
4.436690 18.068000 -3.642024 7.993073 -47.077431 -1.968273 -7.310126 -1.870462 -25.754569 3.731410 13.064892 40.181960 0.984017 1.143877 10.966091 1.192800 -6.930300 -19.509000 2.483434 21.638892 -14.748037 -5.182551 -12.679690 42.483153 1.780874 -7.403231 -0.969949 -0.889800 6.012500 -16.820700 -0.775892 1.712459 1.639485 1.756023 1.197935 -4.396872 1.443351 5.883848 10.259970 1.736600 2.944300 4.228700 -81.992804 -4.069423 20.933044 140.611546 -48.121414 -104.150920 -0.067584 -1.087915 -3.068083 -7.125000 0.000000 0.000000 65.771294 7.098584 45.448203 -95.475293 61.767398 -77.393060 0.496653 2.963360 -0.788605 7.125000 0.000000 0.000000 
4.480911 18.132248 -3.618134 7.961578 -47.661119 -1.976312 -7.387936 -1.114639 -26.345281 3.837051 13.200294 40.583634 1.105016 0.894753 12.727853 1.293000 -7.204700 -20.323200 2.095620 21.529896 -15.084189 -5.111459 -12.635953 42.233729 1.305790 -6.363327 0.949210 -0.860000 5.913800 -16.534400 -0.739607 1.850666 1.791586 1.512830 1.260939 -4.268537 1.181964 6.220578 9.985369 1.590700 3.114200 4.132300 -82.152117 -4.080145 20.994762 141.097532 -47.784814 -104.471739 -0.058585 -1.073495 -2.864938 -7.125000 0.000000 0.000000 65.823566 7.687941 44.907731 -98.377966 61.910767 -79.364518 0.385228 2.907247 -0.849028 7.125000 0.000000 0.000000 
4.525743 18.199038 -3.589365 8.086078 -48.176045 -2.146045 -7.521353 -0.512513 -26.826993 3.932253 13.320156 40.970727 1.236157 0.633495 14.673111 1.258700 -7.112000 -20.047700 1.544938 21.158601 -15.460465 -5.012195 -12.592903 41.917467 0.812221 -5.317722 3.031538 -0.900200 6.046800 -16.920400 -0.587380 1.968304 1.834020 1.503301 1.319596 -4.380127 0.814516 6.572309 9.856453 1.417500 3.280500 4.087800 -82.575039 -3.848082 21.116952 141.668935 -47.392717 -104.838733 -0.053805 -1.055503 -2.910962 -7.125000 0.000000 0.000000 65.663923 8.070874 44.459461 -101.660352 61.913592 -81.505243 0.271167 2.835758 -0.886847 7.125000 0.000000 0.000000 
4.569354 18.269792 -3.561510 8.259037 -48.744021 -2.342596 -7.689098 0.150319 -27.321855 4.037463 13.441294 41.338461 1.285117 0.648226 16.731758 1.138200 -6.775400 -19.051500 0.940664 20.910536 -15.808634 -4.878899 -12.520409 41.493906 0.367073 -4.400965 5.233132 -0.952100 6.213800 -17.405900 -0.383659 2.124566 1.882157 1.597295 1.396666 -4.454110 0.461576 6.897392 9.706452 1.259000 3.432000 4.015100 -82.995243 -3.688845 21.397271 142.410365 -46.866522 -105.308439 -0.052492 -1.044109 -2.997721 -7.125000 0.000000 0.000000 65.403962 8.417512 44.077050 -105.295316 61.704799 -83.818748 0.134008 2.762852 -1.027831 7.125000 0.000000 0.000000 
4.614592 18.337700 -3.538027 8.239847 -49.343423 -2.373313 -7.722015 0.884400 -27.911790 4.151986 13.578053 41.702021 1.358363 0.674923 18.855039 1.074100 -6.588100 -18.500600 0.451601 20.925729 -16.052276 -4.698739 -12.397853 40.966784 -0.131663 -3.366218 7.411418 -0.913500 6.090200 -17.046300 -0.260330 2.282174 2.040755 1.516164 1.469026 -4.318778 0.146892 7.211902 9.369719 1.094200 3.587900 3.865900 -83.047417 -3.833476 21.765151 143.122418 -46.336338 -105.760363 -0.053885 -1.033351 -3.010503 -7.125000 0.000000 0.000000 65.359184 9.021973 43.831535 -108.784182 61.290763 -86.009880 0.003516 2.703291 -1.034890 7.125000 0.000000 0.000000 
